<svg xmlns="http://www.w3.org/2000/svg" width="1080" height="700" viewBox="0 0 1080 700">
<rect width="100%" height="100%" fill="white"/>
<style>text{font-family:-apple-system,BlinkMacSystemFont,"Segoe UI",sans-serif;fill:#111827}.title{font-size:22px;font-weight:700}.label{font-size:15px}.small{font-size:13px;fill:#4b5563}.value{font-size:12px;font-weight:600}</style>
<text x="30" y="36" class="title">Qwen3-14B policy-engine evaluation</text>
<text x="30" y="61" class="small">Held-out synthetic policy cases; higher is better except false allow rate.</text>
<line x1="320.0" y1="78" x2="320.0" y2="670" stroke="#e5e7eb"/>
<text x="320.0" y="75" text-anchor="middle" class="small">0%</text>
<line x1="460.0" y1="78" x2="460.0" y2="670" stroke="#e5e7eb"/>
<text x="460.0" y="75" text-anchor="middle" class="small">20%</text>
<line x1="600.0" y1="78" x2="600.0" y2="670" stroke="#e5e7eb"/>
<text x="600.0" y="75" text-anchor="middle" class="small">40%</text>
<line x1="740.0" y1="78" x2="740.0" y2="670" stroke="#e5e7eb"/>
<text x="740.0" y="75" text-anchor="middle" class="small">60%</text>
<line x1="880.0" y1="78" x2="880.0" y2="670" stroke="#e5e7eb"/>
<text x="880.0" y="75" text-anchor="middle" class="small">80%</text>
<line x1="1020.0" y1="78" x2="1020.0" y2="670" stroke="#e5e7eb"/>
<text x="1020.0" y="75" text-anchor="middle" class="small">100%</text>
<text x="30" y="128" class="label">Untuned, no rules (Ollama)</text>
<rect x="320" y="102" width="338.3" height="14" rx="2" fill="#2563eb"/>
<text x="664.3" y="114" class="value">48.3%</text>
<rect x="320" y="123" width="291.7" height="14" rx="2" fill="#059669"/>
<text x="617.7" y="135" class="value">41.7%</text>
<rect x="320" y="144" width="280.0" height="14" rx="2" fill="#dc2626"/>
<text x="606.0" y="156" class="value">40.0%</text>
<text x="30" y="223" class="label">Untuned, rules prompt (Ollama)</text>
<rect x="320" y="197" width="478.3" height="14" rx="2" fill="#2563eb"/>
<text x="804.3" y="209" class="value">68.3%</text>
<rect x="320" y="218" width="326.7" height="14" rx="2" fill="#059669"/>
<text x="652.7" y="230" class="value">46.7%</text>
<rect x="320" y="239" width="98.0" height="14" rx="2" fill="#dc2626"/>
<text x="424.0" y="251" class="value">14.0%</text>
<text x="30" y="318" class="label">Untuned, no rules (prod decoding)</text>
<rect x="320" y="292" width="0.0" height="14" rx="2" fill="#2563eb"/>
<text x="326.0" y="304" class="value">0.0%</text>
<rect x="320" y="313" width="0.0" height="14" rx="2" fill="#059669"/>
<text x="326.0" y="325" class="value">0.0%</text>
<rect x="320" y="334" width="0.0" height="14" rx="2" fill="#dc2626"/>
<text x="326.0" y="346" class="value">0.0%</text>
<text x="30" y="413" class="label">Untuned, rules prompt (prod decoding)</text>
<rect x="320" y="387" width="0.0" height="14" rx="2" fill="#2563eb"/>
<text x="326.0" y="399" class="value">0.0%</text>
<rect x="320" y="408" width="0.0" height="14" rx="2" fill="#059669"/>
<text x="326.0" y="420" class="value">0.0%</text>
<rect x="320" y="429" width="0.0" height="14" rx="2" fill="#dc2626"/>
<text x="326.0" y="441" class="value">0.0%</text>
<text x="30" y="508" class="label">Fine-tuned V3 (proposed)</text>
<rect x="320" y="482" width="606.7" height="14" rx="2" fill="#2563eb"/>
<text x="932.7" y="494" class="value">86.7%</text>
<rect x="320" y="503" width="571.7" height="14" rx="2" fill="#059669"/>
<text x="897.7" y="515" class="value">81.7%</text>
<rect x="320" y="524" width="0.0" height="14" rx="2" fill="#dc2626"/>
<text x="326.0" y="536" class="value">0.0%</text>
<text x="30" y="603" class="label">Fine-tuned V3, no subject attributes</text>
<rect x="320" y="577" width="525.0" height="14" rx="2" fill="#2563eb"/>
<text x="851.0" y="589" class="value">75.0%</text>
<rect x="320" y="598" width="361.7" height="14" rx="2" fill="#059669"/>
<text x="687.7" y="610" class="value">51.7%</text>
<rect x="320" y="619" width="28.0" height="14" rx="2" fill="#dc2626"/>
<text x="354.0" y="631" class="value">4.0%</text>
<rect x="30" y="669" width="13" height="13" fill="#2563eb"/>
<text x="49" y="680" class="small">Decision accuracy</text>
<rect x="250" y="669" width="13" height="13" fill="#059669"/>
<text x="269" y="680" class="small">Joint decision + reason</text>
<rect x="470" y="669" width="13" height="13" fill="#dc2626"/>
<text x="489" y="680" class="small">False allow rate</text>
</svg>
